<svg xmlns="http://www.w3.org/2000/svg" version="1.1" xmlns:xlink="http://www.w3.org/1999/xlink" width="200" height="200"><svg xmlns="http://www.w3.org/2000/svg" version="1.1" xmlns:xlink="http://www.w3.org/1999/xlink" viewBox="0 0 200 200"><rect width="200" height="200" fill="url('#gradient')"></rect><defs><linearGradient id="SvgjsLinearGradient1001" gradientTransform="rotate(238 0.5 0.5)"><stop offset="0%" stop-color="#0e6e8b"></stop><stop offset="100%" stop-color="#000000"></stop></linearGradient></defs><g><g fill="#45aed7" transform="matrix(5.9286185415903265,0,0,5.9286185415903265,21.17811429769445,142.1518534887488)" stroke="#a7b509" stroke-width="0.1"><path d="M9.98 0L9.15-2.66L4.45-2.66L3.63 0L-0.03 0L5.19-14.22L8.41-14.22L13.66 0L9.98 0ZM6.80-10.23L5.27-5.30L8.33-5.30L6.80-10.23ZM22.56 0L19.53-5.29L18.13-3.75L18.13 0L14.70 0L14.70-14.22L18.13-14.22L18.13-7.95L19.32-9.76L22.38-14.22L26.62-14.22L21.82-7.93L26.62 0L22.56 0Z"></path></g></g></svg><style>@media (prefers-color-scheme: light) { :root { filter: none; } }
@media (prefers-color-scheme: dark) { :root { filter: none; } }
</style></svg>